<svg version="1.0" xmlns="http://www.w3.org/2000/svg" width="170.667" height="170.667" viewBox="0 0 128 128"><path d="M33.9 21.6c-2.9 3.1-3.2 9.3-.6 12.2 1.8 1.9 1.8 2.2-.2 6.1-3.6 7-4.7 16.5-3.3 29.8 1 10 4.2 25.2 6.7 31.5.5 1.2-.1 1.8-2.4 2.3-4.7 1-3.7 3.1 2.2 4.7 3.6.9 12.2 1.3 28.2 1.3s24.6-.4 28.3-1.3c5.8-1.6 6.8-3.7 2.1-4.7-2.3-.5-2.9-1.1-2.4-2.3 2-5.1 5.7-22 6.7-30.7 1.3-12.5.6-20.8-2.6-28.6l-2.4-6.1 2-3.4c2.3-4 1.9-7.6-1.4-11.2-3.1-3.2-9.7-3.1-13.1.4-2.5 2.4-2.8 2.5-6.4 1.3-4.9-1.7-16.7-1.7-21.6 0-3.6 1.2-3.9 1.1-6.4-1.3-3.6-3.6-10-3.6-13.4 0zm9.9 3.7c.4 2-2.5 3.4-4 1.9s-.1-4.4 1.9-4c1 .2 1.9 1.1 2.1 2.1zm46 0c.4 2-2.5 3.4-4 1.9s-.1-4.4 1.9-4c1 .2 1.9 1.1 2.1 2.1zm-11.2 3C89 33.6 95 43.4 95.8 56.2l.5 7.8-3.9 1.6c-5.9 2.5-17.9 4.3-27.9 4.3s-22-1.8-27.9-4.3L32.7 64l.5-7.8c.9-15 9-25.8 22.8-30.3 5-1.7 17.2-.4 22.6 2.4zm2.5 45.3c3.1.5 3.8 1.1 4.3 3.5.7 3.5 4.5 4.1 5.3.9.5-2 2.7-2.7 3.7-1.2.3.5-.2 3.8-1 7.4l-1.5 6.6-6.7 3.6c-3.9 2.1-5.9 3.6-4.7 3.6 1.1 0 2.7.5 3.5 1 1 .7-.2.8-4.1.4-6.3-.7-9.5.5-10.9 3.9-.8 2.1-.9 2.1-.9.2-.1-1.2.3-2.5.8-3 .6-.7-1-1-4.4-1-3.4 0-5 .3-4.4 1 .5.5.9 1.8.9 3-.1 1.7-.3 1.6-1.6-.7-1.8-3.3-4.8-4.2-11.2-3.4-3.3.5-4.3.4-3.2-.3.8-.6 2.4-1.1 3.5-1.1 1.2 0-.7-1.5-4.7-3.6-6.3-3.4-6.7-3.8-7.7-8.2-1.8-8-1.8-9.6.2-10 1.2-.2 1.7.3 1.7 1.7 0 2.9 3.6 2.8 5.1-.2.7-1.2 1-2.4.8-2.7-1.4-1.6 29-2.7 37.2-1.4z"/><path d="M40.2 25.2c.6 1.8 2.8 2.1 2.8.4 0-.9-.7-1.6-1.6-1.6-.9 0-1.4.5-1.2 1.2zM86 25.6c0 .9.5 1.4 1.2 1.2 1.8-.6 2.1-2.8.4-2.8-.9 0-1.6.7-1.6 1.6zM52.3 35.2c-1.2.6-2.7 2.3-3.4 3.9-2.4 5.9 3.3 12.1 9.6 10.5 2.1-.5 2.5-1.1 2-2.7-.5-1.5-.2-2.2 1.4-2.6 3.7-1 2.5-6.5-2-8.8-3.2-1.7-4.6-1.8-7.6-.3zM69.4 35.2c-2.2 1-4.4 4.7-4.4 7.2 0 .8 1 1.6 2.1 1.9 1.5.4 2 1.1 1.5 2.2-.9 2.5 3.6 4.1 7.3 2.6 6-2.5 6.3-11.3.5-14-3-1.3-4.2-1.3-7 .1zM61.5 50.1c-.4.5.1 1.9 1 2.9 2.3 2.6 1.1 5.8-2.8 7.5-1.8.8-2.6 1.4-1.9 1.5.7 0 2.6-.7 4.1-1.5 2.3-1.2 3.1-1.2 4.6-.1 1.7 1.2 1.7 1.3 0 2-1 .3-2.7.4-3.8 0-1.3-.4-1.7-.2-1.3.5.9 1.5 3.8 1.4 6.9-.2l2.5-1.3-2.9-1.7c-3.3-1.8-3.9-5.3-1.2-7.2.9-.7 1.3-1.7.9-2.3-.9-1.5-5.3-1.6-6.1-.1z"/></svg>